<svg width="18" height="18" fill="none" xmlns="http://www.w3.org/2000/svg"><path d="M10.984 0H7.125C2.916 0 0 2.584 0 6.287v5.017C0 15.244 2.916 18.02 7.125 18h5.043v-1.766H7.125c-3.069 0-5.174-2.024-5.174-4.93V6.287c0-2.67 2.105-4.543 5.174-4.543h3.86c3.069 0 5.108 1.787 5.108 4.457v2.82c0 1.723-.505 2.52-1.645 2.52-.789 0-1.337-.496-1.337-1.228V4.608h-1.842V5.77c-.548-.775-1.622-1.292-2.784-1.292-2.675 0-4.21 1.874-4.21 4.457 0 2.563 1.535 4.457 4.232 4.457 1.688 0 2.806-.689 3.2-1.593.308.926 1.426 1.507 2.72 1.507C16.662 13.306 18 11.8 18 9.021v-2.82C18 2.498 15.194 0 10.984 0zM8.748 11.864c-1.6.021-2.653-1.163-2.653-2.929 0-1.787 1.052-2.95 2.653-2.95 1.6 0 2.63 1.163 2.63 2.95 0 1.766-1.03 2.929-2.63 2.929z" fill="#fff"/></svg>