<?xml version="1.0" encoding="utf-8"?>
<!-- Generator: Adobe Illustrator 17.0.0, SVG Export Plug-In . SVG Version: 6.00 Build 0)  -->
<!DOCTYPE svg PUBLIC "-//W3C//DTD SVG 1.1//EN" "http://www.w3.org/Graphics/SVG/1.1/DTD/svg11.dtd">
<svg version="1.1" id="Layer_1" xmlns="http://www.w3.org/2000/svg" xmlns:xlink="http://www.w3.org/1999/xlink" x="0px" y="0px"
	 width="240px" height="60px" viewBox="0 0 240 60" enable-background="new 0 0 240 60" xml:space="preserve">
<g>
	<path d="M35.209,21.497c-0.574-0.91-1.274-1.673-2.1-2.289c-0.826-0.616-1.736-1.085-2.73-1.407
		c-0.994-0.321-2.037-0.483-3.129-0.483c-1.988,0-3.696,0.378-5.124,1.134c-1.428,0.756-2.598,1.757-3.507,3.003
		c-0.91,1.246-1.582,2.653-2.017,4.221c-0.434,1.569-0.65,3.178-0.65,4.83c0,1.625,0.217,3.228,0.65,4.809
		c0.435,1.583,1.106,2.997,2.017,4.242c0.909,1.246,2.079,2.247,3.507,3.003s3.136,1.134,5.124,1.134c1.399,0,2.66-0.252,3.78-0.756
		c1.119-0.504,2.085-1.19,2.897-2.058c0.812-0.868,1.471-1.883,1.975-3.045c0.504-1.162,0.825-2.415,0.966-3.759h2.855
		c-0.196,1.848-0.63,3.514-1.302,4.998c-0.672,1.484-1.54,2.744-2.604,3.78c-1.064,1.036-2.317,1.834-3.76,2.394
		c-1.442,0.56-3.045,0.84-4.809,0.84c-2.352,0-4.417-0.427-6.195-1.281c-1.778-0.854-3.255-1.995-4.431-3.423
		c-1.176-1.428-2.058-3.08-2.646-4.956c-0.588-1.876-0.882-3.85-0.882-5.922c0-2.072,0.294-4.045,0.882-5.922
		c0.589-1.875,1.471-3.535,2.646-4.977c1.176-1.442,2.652-2.589,4.431-3.444c1.778-0.854,3.844-1.281,6.195-1.281
		c1.428,0,2.82,0.21,4.179,0.63c1.358,0.42,2.59,1.043,3.696,1.869c1.105,0.826,2.029,1.842,2.772,3.045
		c0.741,1.205,1.21,2.59,1.406,4.158h-2.855C36.196,23.436,35.782,22.407,35.209,21.497z"/>
	<path d="M44.369,23.828v5.082h0.084c0.672-1.764,1.715-3.122,3.129-4.074c1.414-0.952,3.101-1.386,5.062-1.302v2.646
		c-1.205-0.056-2.297,0.105-3.276,0.483c-0.98,0.378-1.827,0.917-2.541,1.617c-0.714,0.7-1.268,1.533-1.659,2.499
		c-0.393,0.966-0.588,2.023-0.588,3.171V45.5h-2.646V23.828H44.369z"/>
	<path d="M68.959,45.5v-3.906h-0.084c-0.7,1.456-1.715,2.569-3.045,3.339c-1.33,0.77-2.808,1.155-4.431,1.155
		c-1.372,0-2.541-0.189-3.507-0.567s-1.75-0.917-2.353-1.617c-0.603-0.699-1.043-1.554-1.322-2.562
		c-0.28-1.008-0.421-2.156-0.421-3.444v-14.07h2.646V37.94c0.056,1.96,0.511,3.444,1.365,4.452c0.854,1.008,2.331,1.512,4.431,1.512
		c1.147,0,2.128-0.245,2.94-0.735c0.812-0.49,1.483-1.141,2.016-1.953c0.531-0.812,0.924-1.743,1.176-2.793
		c0.252-1.05,0.378-2.121,0.378-3.213V23.828h2.646V45.5H68.959z"/>
	<path d="M77.418,23.828v3.738h0.084c0.504-1.316,1.399-2.373,2.688-3.171c1.287-0.798,2.701-1.197,4.241-1.197
		c1.513,0,2.779,0.196,3.802,0.588c1.021,0.392,1.84,0.945,2.457,1.659c0.615,0.714,1.05,1.59,1.302,2.625
		c0.252,1.037,0.378,2.199,0.378,3.486V45.5h-2.646V31.976c0-0.924-0.084-1.785-0.252-2.583s-0.462-1.491-0.882-2.079
		s-0.987-1.05-1.701-1.386c-0.714-0.336-1.603-0.504-2.667-0.504s-2.009,0.189-2.835,0.567c-0.826,0.378-1.526,0.896-2.1,1.554
		c-0.574,0.658-1.022,1.442-1.344,2.352c-0.322,0.91-0.498,1.897-0.525,2.961V45.5h-2.646V23.828H77.418z"/>
	<path d="M109.052,26.81c-0.98-0.924-2.352-1.386-4.116-1.386c-1.26,0-2.366,0.267-3.317,0.798c-0.952,0.532-1.743,1.232-2.373,2.1
		c-0.63,0.869-1.106,1.855-1.429,2.961c-0.322,1.106-0.482,2.233-0.482,3.381c0,1.148,0.16,2.275,0.482,3.381
		c0.322,1.106,0.799,2.094,1.429,2.961c0.63,0.868,1.421,1.568,2.373,2.1c0.951,0.532,2.058,0.798,3.317,0.798
		c0.812,0,1.582-0.153,2.311-0.462c0.728-0.308,1.371-0.735,1.932-1.281c0.56-0.546,1.021-1.197,1.386-1.953
		s0.588-1.582,0.672-2.478h2.646c-0.364,2.632-1.33,4.683-2.898,6.153c-1.568,1.47-3.584,2.205-6.048,2.205
		c-1.652,0-3.115-0.301-4.389-0.903c-1.274-0.602-2.346-1.421-3.213-2.457c-0.868-1.036-1.526-2.247-1.975-3.633
		c-0.448-1.386-0.672-2.863-0.672-4.431c0-1.568,0.224-3.045,0.672-4.431c0.448-1.386,1.106-2.597,1.975-3.633
		c0.867-1.036,1.938-1.862,3.213-2.478c1.273-0.616,2.736-0.924,4.389-0.924c2.324,0,4.291,0.616,5.901,1.848
		c1.609,1.232,2.568,3.094,2.877,5.586h-2.646C110.703,29.008,110.031,27.734,109.052,26.81z"/>
	<path d="M118.67,15.512v12.054h0.084c0.504-1.316,1.399-2.373,2.688-3.171c1.287-0.798,2.701-1.197,4.241-1.197
		c1.513,0,2.779,0.196,3.802,0.588c1.021,0.392,1.84,0.945,2.457,1.659c0.615,0.714,1.05,1.59,1.302,2.625
		c0.252,1.037,0.378,2.199,0.378,3.486V45.5h-2.646V31.976c0-0.924-0.084-1.785-0.252-2.583s-0.462-1.491-0.882-2.079
		s-0.987-1.05-1.701-1.386c-0.714-0.336-1.603-0.504-2.667-0.504s-2.009,0.189-2.835,0.567c-0.826,0.378-1.526,0.896-2.1,1.554
		c-0.574,0.658-1.022,1.442-1.344,2.352c-0.322,0.91-0.498,1.897-0.525,2.961V45.5h-2.646V15.512H118.67z"/>
	<path fill="#529699" d="M137.561,15.512h14.573c2.688,0,4.844,0.616,6.469,1.848c1.623,1.232,2.436,3.094,2.436,5.586
		c0,1.512-0.371,2.808-1.113,3.885c-0.742,1.078-1.799,1.911-3.171,2.499v0.084c1.849,0.393,3.248,1.267,4.2,2.625
		c0.951,1.358,1.428,3.06,1.428,5.103c0,1.176-0.21,2.275-0.63,3.297c-0.42,1.022-1.078,1.904-1.974,2.646
		c-0.896,0.742-2.044,1.33-3.444,1.764s-3.065,0.651-4.998,0.651h-13.775V15.512z M142.811,28.07h8.567
		c1.26,0,2.311-0.357,3.15-1.071s1.26-1.743,1.26-3.087c0-1.512-0.378-2.576-1.134-3.192c-0.756-0.616-1.848-0.924-3.276-0.924
		h-8.567V28.07z M142.811,41.216h9.281c1.597,0,2.835-0.413,3.718-1.239c0.882-0.826,1.322-1.995,1.322-3.507
		c0-1.484-0.44-2.625-1.322-3.423c-0.883-0.798-2.121-1.197-3.718-1.197h-9.281V41.216z"/>
	<path fill="#529699" d="M183.269,40.67c0,0.588,0.077,1.008,0.23,1.26c0.154,0.252,0.455,0.378,0.903,0.378c0.14,0,0.308,0,0.504,0
		s0.42-0.028,0.672-0.084v3.318c-0.168,0.056-0.385,0.119-0.65,0.189c-0.267,0.07-0.54,0.133-0.819,0.189
		c-0.28,0.056-0.561,0.098-0.84,0.126c-0.28,0.028-0.519,0.042-0.714,0.042c-0.98,0-1.792-0.196-2.437-0.588
		s-1.064-1.078-1.26-2.058c-0.952,0.924-2.121,1.596-3.507,2.016s-2.724,0.63-4.011,0.63c-0.98,0-1.919-0.133-2.814-0.399
		c-0.896-0.266-1.688-0.658-2.373-1.176c-0.687-0.518-1.232-1.176-1.638-1.974c-0.406-0.798-0.609-1.729-0.609-2.793
		c0-1.344,0.245-2.436,0.735-3.276c0.489-0.84,1.134-1.498,1.932-1.974c0.798-0.476,1.694-0.819,2.688-1.029
		c0.993-0.21,1.995-0.371,3.003-0.483c0.867-0.168,1.693-0.287,2.478-0.357c0.784-0.069,1.477-0.189,2.079-0.357
		c0.602-0.168,1.078-0.427,1.428-0.777c0.351-0.35,0.525-0.875,0.525-1.575c0-0.616-0.146-1.12-0.44-1.512
		c-0.295-0.392-0.659-0.693-1.093-0.903c-0.435-0.21-0.917-0.35-1.448-0.42c-0.532-0.069-1.037-0.105-1.513-0.105
		c-1.344,0-2.45,0.28-3.317,0.84c-0.868,0.561-1.358,1.428-1.471,2.604h-4.788c0.084-1.399,0.42-2.562,1.009-3.486
		c0.588-0.924,1.336-1.666,2.247-2.226c0.909-0.56,1.938-0.952,3.087-1.176c1.147-0.224,2.323-0.336,3.527-0.336
		c1.064,0,2.114,0.112,3.15,0.336c1.035,0.224,1.967,0.588,2.793,1.092c0.825,0.504,1.491,1.155,1.995,1.953
		c0.504,0.798,0.756,1.771,0.756,2.919V40.67z M178.48,34.622c-0.729,0.477-1.624,0.763-2.688,0.861
		c-1.064,0.099-2.129,0.246-3.192,0.441c-0.504,0.084-0.994,0.204-1.47,0.357c-0.477,0.154-0.896,0.364-1.261,0.63
		s-0.65,0.616-0.86,1.05c-0.21,0.435-0.315,0.959-0.315,1.575c0,0.532,0.153,0.98,0.462,1.344c0.308,0.364,0.679,0.651,1.113,0.861
		c0.434,0.21,0.909,0.357,1.428,0.441c0.518,0.084,0.987,0.126,1.407,0.126c0.531,0,1.105-0.07,1.722-0.21s1.197-0.378,1.743-0.714
		c0.546-0.336,1.001-0.762,1.365-1.281c0.363-0.518,0.546-1.155,0.546-1.911V34.622z"/>
	<path fill="#529699" d="M190.85,38.528c0.14,1.4,0.672,2.38,1.596,2.94c0.925,0.561,2.03,0.84,3.318,0.84
		c0.447,0,0.959-0.035,1.533-0.105c0.573-0.07,1.113-0.203,1.617-0.399s0.916-0.483,1.238-0.861s0.469-0.875,0.441-1.491
		c-0.028-0.616-0.252-1.12-0.672-1.512c-0.42-0.392-0.96-0.707-1.617-0.945c-0.658-0.238-1.407-0.441-2.247-0.609
		c-0.84-0.168-1.694-0.35-2.562-0.546c-0.896-0.195-1.758-0.434-2.583-0.714c-0.826-0.279-1.568-0.658-2.227-1.134
		s-1.183-1.085-1.575-1.827c-0.392-0.742-0.588-1.659-0.588-2.751c0-1.176,0.287-2.163,0.861-2.961
		c0.573-0.798,1.302-1.442,2.184-1.932c0.883-0.49,1.862-0.833,2.94-1.029c1.077-0.196,2.106-0.294,3.087-0.294
		c1.12,0,2.19,0.119,3.213,0.357c1.021,0.238,1.946,0.623,2.772,1.155c0.825,0.532,1.512,1.225,2.058,2.079
		c0.546,0.854,0.889,1.883,1.029,3.087h-4.998c-0.225-1.148-0.75-1.917-1.575-2.31c-0.826-0.392-1.771-0.588-2.835-0.588
		c-0.336,0-0.735,0.028-1.197,0.084c-0.462,0.057-0.896,0.162-1.302,0.315c-0.406,0.154-0.749,0.378-1.029,0.672
		s-0.42,0.679-0.42,1.155c0,0.588,0.204,1.064,0.611,1.428c0.407,0.364,0.94,0.666,1.601,0.903c0.66,0.238,1.411,0.441,2.254,0.609
		c0.842,0.168,1.712,0.351,2.611,0.546c0.87,0.196,1.727,0.435,2.569,0.714c0.843,0.28,1.594,0.658,2.254,1.134
		c0.66,0.477,1.193,1.078,1.601,1.806s0.611,1.624,0.611,2.688c0,1.288-0.295,2.38-0.884,3.276c-0.59,0.896-1.354,1.624-2.295,2.184
		c-0.939,0.56-1.984,0.966-3.135,1.218c-1.151,0.252-2.287,0.378-3.409,0.378c-1.376,0-2.646-0.154-3.81-0.462
		c-1.165-0.308-2.175-0.777-3.031-1.407c-0.855-0.63-1.529-1.414-2.021-2.352c-0.49-0.938-0.751-2.051-0.778-3.339H190.85z"/>
	<path fill="#529699" d="M211.337,35.882c0,0.84,0.119,1.653,0.357,2.436c0.237,0.784,0.595,1.47,1.07,2.058
		c0.477,0.588,1.078,1.057,1.807,1.407c0.728,0.35,1.596,0.525,2.604,0.525c1.4,0,2.527-0.301,3.381-0.903
		c0.854-0.602,1.491-1.504,1.911-2.709h4.536c-0.252,1.176-0.687,2.226-1.302,3.15c-0.616,0.924-1.358,1.701-2.226,2.331
		c-0.869,0.63-1.842,1.106-2.92,1.428s-2.204,0.483-3.381,0.483c-1.708,0-3.22-0.28-4.536-0.84c-1.316-0.56-2.429-1.344-3.339-2.352
		s-1.596-2.211-2.058-3.612c-0.462-1.4-0.693-2.94-0.693-4.62c0-1.54,0.245-3.003,0.735-4.389c0.489-1.386,1.189-2.604,2.1-3.654
		c0.91-1.05,2.009-1.883,3.297-2.499c1.288-0.616,2.744-0.924,4.368-0.924c1.708,0,3.241,0.357,4.6,1.071
		c1.357,0.714,2.484,1.659,3.381,2.835c0.896,1.176,1.547,2.527,1.953,4.053c0.405,1.526,0.51,3.101,0.314,4.725H211.337z
		 M222.509,32.732c-0.056-0.756-0.217-1.484-0.482-2.184c-0.267-0.699-0.63-1.309-1.092-1.827c-0.463-0.518-1.022-0.938-1.681-1.26
		c-0.658-0.321-1.393-0.483-2.205-0.483c-0.84,0-1.603,0.147-2.289,0.441s-1.274,0.7-1.764,1.218
		c-0.49,0.518-0.882,1.127-1.176,1.827c-0.294,0.7-0.456,1.457-0.483,2.268H222.509z"/>
</g>
</svg>
